<svg width="24" height="24" viewBox="0 0 24 24" fill="none" xmlns="http://www.w3.org/2000/svg">
<path d="M0 4C0 1.79086 1.79086 0 4 0H20C22.2091 0 24 1.79086 24 4V20C24 22.2091 22.2091 24 20 24H4C1.79086 24 0 22.2091 0 20V4Z" fill="#8F87FF"/>
<path d="M15.7058 5.00469C16.9979 5.93591 17.1364 7.74213 15.9988 8.83969L13.2565 11.494L13.2443 11.5771L20 11.5619C19.7941 13.0835 18.2446 14.0873 16.6877 13.7125L13.0739 12.8375L13.0616 12.9207L16.5958 18.4858C15.0107 19.1066 13.2124 18.2702 12.7441 16.6948L11.7818 13.4431L11.6948 13.4314L8.02942 19C6.79742 18.0231 6.71775 16.2438 7.85535 15.1685L10.605 12.5716L10.6172 12.4885L4 12.4767C4.20595 10.9622 5.75912 9.96302 7.30494 10.3531L10.7435 11.2199L10.7558 11.1367L7.32087 5.49548C8.86179 4.88638 10.6172 5.68524 11.0965 7.21386L12.1348 10.5382L12.2219 10.5499L15.7046 5V5.00351L15.7058 5.00469Z" fill="black"/>
</svg>
